<mxfile host="app.diagrams.net" modified="2021-02-20T03:23:28.081Z" agent="5.0 (Windows NT 10.0; Win64; x64) AppleWebKit/537.36 (KHTML, like Gecko) Chrome/88.0.4324.182 Safari/537.36 Edg/88.0.705.74" etag="Iqve76pX4DDXKsIk3x_D" version="14.4.2" type="github">
  <diagram id="1R1wlKdtBgLzuDGhtdhz" name="Page-1">
    <mxGraphModel dx="1420" dy="754" grid="1" gridSize="10" guides="1" tooltips="1" connect="1" arrows="1" fold="1" page="1" pageScale="1" pageWidth="827" pageHeight="1169" math="0" shadow="0">
      <root>
        <mxCell id="0" />
        <mxCell id="1" parent="0" />
        <mxCell id="gYk1PrIy5XpAM3X3l13F-1" value="" style="rounded=1;whiteSpace=wrap;html=1;strokeWidth=2;fillWeight=4;hachureGap=8;hachureAngle=45;sketch=1;fillColor=#CCCCCC;" vertex="1" parent="1">
          <mxGeometry x="200" y="360" width="460" height="30" as="geometry" />
        </mxCell>
        <mxCell id="gYk1PrIy5XpAM3X3l13F-2" value="" style="shape=curlyBracket;whiteSpace=wrap;html=1;rounded=1;fillColor=#CCCCCC;direction=north;" vertex="1" parent="1">
          <mxGeometry x="200" y="420" width="350" height="10" as="geometry" />
        </mxCell>
        <mxCell id="gYk1PrIy5XpAM3X3l13F-3" value="" style="shape=curlyBracket;whiteSpace=wrap;html=1;rounded=1;fillColor=#CCCCCC;direction=north;" vertex="1" parent="1">
          <mxGeometry x="560" y="420" width="100" height="10" as="geometry" />
        </mxCell>
        <mxCell id="gYk1PrIy5XpAM3X3l13F-4" value="&lt;span style=&quot;text-align: left&quot;&gt;1234523&lt;/span&gt;" style="text;html=1;strokeColor=none;fillColor=none;align=center;verticalAlign=middle;whiteSpace=wrap;rounded=0;" vertex="1" parent="1">
          <mxGeometry x="414" y="320" width="56" height="20" as="geometry" />
        </mxCell>
        <mxCell id="gYk1PrIy5XpAM3X3l13F-5" value="3" style="text;html=1;strokeColor=none;fillColor=none;align=center;verticalAlign=middle;whiteSpace=wrap;rounded=0;fontSize=14;" vertex="1" parent="1">
          <mxGeometry x="590" y="440" width="40" height="20" as="geometry" />
        </mxCell>
        <mxCell id="gYk1PrIy5XpAM3X3l13F-6" value="&lt;span style=&quot;font-size: 12px ; text-align: left&quot;&gt;123452&lt;/span&gt;" style="text;html=1;strokeColor=none;fillColor=none;align=center;verticalAlign=middle;whiteSpace=wrap;rounded=0;fontSize=14;" vertex="1" parent="1">
          <mxGeometry x="339" y="440" width="75" height="20" as="geometry" />
        </mxCell>
        <mxCell id="gYk1PrIy5XpAM3X3l13F-14" value="&lt;h1&gt;num&lt;/h1&gt;&lt;p&gt;1234523&lt;/p&gt;" style="text;html=1;strokeColor=none;fillColor=none;spacing=5;spacingTop=-20;whiteSpace=wrap;overflow=hidden;rounded=0;" vertex="1" parent="1">
          <mxGeometry x="200" y="180" width="185" height="80" as="geometry" />
        </mxCell>
        <mxCell id="gYk1PrIy5XpAM3X3l13F-16" value="" style="rounded=1;whiteSpace=wrap;html=1;strokeWidth=2;fillWeight=4;hachureGap=8;hachureAngle=45;sketch=1;fillColor=#CCCCCC;" vertex="1" parent="1">
          <mxGeometry x="200" y="550" width="460" height="30" as="geometry" />
        </mxCell>
        <mxCell id="gYk1PrIy5XpAM3X3l13F-17" value="" style="shape=curlyBracket;whiteSpace=wrap;html=1;rounded=1;fillColor=#CCCCCC;direction=north;" vertex="1" parent="1">
          <mxGeometry x="200" y="610" width="290" height="10" as="geometry" />
        </mxCell>
        <mxCell id="gYk1PrIy5XpAM3X3l13F-18" value="" style="shape=curlyBracket;whiteSpace=wrap;html=1;rounded=1;fillColor=#CCCCCC;direction=north;" vertex="1" parent="1">
          <mxGeometry x="510" y="610" width="150" height="10" as="geometry" />
        </mxCell>
        <mxCell id="gYk1PrIy5XpAM3X3l13F-19" value="&lt;span style=&quot;text-align: left&quot;&gt;1234523&lt;/span&gt;" style="text;html=1;strokeColor=none;fillColor=none;align=center;verticalAlign=middle;whiteSpace=wrap;rounded=0;" vertex="1" parent="1">
          <mxGeometry x="414" y="510" width="56" height="20" as="geometry" />
        </mxCell>
        <mxCell id="gYk1PrIy5XpAM3X3l13F-20" value="23" style="text;html=1;strokeColor=none;fillColor=none;align=center;verticalAlign=middle;whiteSpace=wrap;rounded=0;fontSize=14;" vertex="1" parent="1">
          <mxGeometry x="565" y="630" width="40" height="20" as="geometry" />
        </mxCell>
        <mxCell id="gYk1PrIy5XpAM3X3l13F-21" value="&lt;span style=&quot;font-size: 12px ; text-align: left&quot;&gt;12345&lt;/span&gt;" style="text;html=1;strokeColor=none;fillColor=none;align=center;verticalAlign=middle;whiteSpace=wrap;rounded=0;fontSize=14;" vertex="1" parent="1">
          <mxGeometry x="307.5" y="630" width="75" height="20" as="geometry" />
        </mxCell>
      </root>
    </mxGraphModel>
  </diagram>
</mxfile>
